<svg width="200" height="200" viewBox="0 0 200 200" fill="none" xmlns="http://www.w3.org/2000/svg" role="img">
  <title>NutriScan AI</title>
  <!-- App icon background -->
  <rect width="200" height="200" rx="46" fill="#1a5c2a"/>
  <rect width="200" height="200" rx="46" fill="white" opacity="0.08"/>
  <!-- Leaf -->
  <path d="M100 158 C46 158 28 112 40 68 C52 26 100 20 124 32 C150 44 170 76 162 114 C154 146 128 158 100 158 Z" fill="white" opacity="0.95"/>
  <!-- Midrib -->
  <path d="M100 154 C88 126 76 94 82 56" fill="none" stroke="#1a5c2a" stroke-width="3.5" stroke-linecap="round"/>
  <!-- Veins -->
  <path d="M100 140 C106 130 118 122 130 118" fill="none" stroke="#1a5c2a" stroke-width="2" stroke-linecap="round" opacity="0.6"/>
  <path d="M96 120 C102 110 114 102 126 100" fill="none" stroke="#1a5c2a" stroke-width="2" stroke-linecap="round" opacity="0.6"/>
  <path d="M90 100 C94 88 104 80 116 78" fill="none" stroke="#1a5c2a" stroke-width="2" stroke-linecap="round" opacity="0.6"/>
  <path d="M86 80 C90 70 98 64 108 62" fill="none" stroke="#1a5c2a" stroke-width="1.6" stroke-linecap="round" opacity="0.5"/>
  <!-- Scan beam -->
  <rect x="0" y="92" width="200" height="14" fill="#34d058" opacity="0.25"/>
  <rect x="0" y="92" width="200" height="2.5" fill="#34d058" opacity="0.9"/>
  <line x1="34" y1="86" x2="34" y2="114" stroke="#34d058" stroke-width="2" opacity="0.7" stroke-linecap="round"/>
  <line x1="166" y1="86" x2="166" y2="114" stroke="#34d058" stroke-width="2" opacity="0.7" stroke-linecap="round"/>
</svg>
